# File created by Blade
# Date/Time:  Wed Jan 21 14:43:55 2015
# Frame Rate: 120.000 fps
#------------------------------------------------------
:FULLY-SPECIFIED
:DEGREES
1707
root 19.645701 35.507885 -20.453774 -173.007635 -0.113534 181.939778
Spine -17.915235 -0.371429 -0.492437
Head 8.636538 0.445335 4.264096
LeftShoulder -10.993144 -34.505084 20.017020
LeftArm -3.610497 -3.104620 -4.656069
LeftForeArm 10.165803 -0.000000 -3.444649
LeftHand -5.485394 -0.000000 -3.587927
LeftHandThumb1 -26.253704 0.000000 33.147579
RightShoulder -10.339697 0.104656 -7.709292
RightArm 0.580654 39.080699 9.713754
RightForeArm -35.404936 -0.000000 8.218998
RightHand -1.538613 -0.000000 6.428996
RightHandThumb1 -24.326973 -0.000000 -32.862282
LeftUpLeg 0.346114 12.332552 3.710599
LeftLeg -6.526313 -0.000000 0.000000
LeftFoot -19.183831 28.146448 -12.415579
LeftToeBase 27.436650 -0.000000 -0.000000
RightUpLeg -0.961824 -8.277491 0.140304
RightLeg -2.677595 -0.000000 0.000000
RightFoot -20.058143 -21.796032 16.552339
RightToeBase 24.987224 -0.000000 -0.000000
1708
root 19.646243 35.506041 -20.457133 -173.042853 -0.109691 181.938792
Spine -17.851208 -0.370458 -0.485844
Head 8.579642 0.481151 4.330702
LeftShoulder -11.159468 -34.296603 20.059536
LeftArm -3.785792 -2.964943 -4.775587
LeftForeArm 10.033966 0.000000 -3.420360
LeftHand -5.520710 -0.000000 -3.580809
LeftHandThumb1 -26.253704 0.000000 33.147579
RightShoulder -10.371129 -0.007373 -7.694171
RightArm 0.242187 39.499319 9.871137
RightForeArm -35.458156 -0.000000 8.517109
RightHand -1.821136 -0.000000 5.916737
RightHandThumb1 -24.326973 -0.000000 -32.862282
LeftUpLeg 0.388685 12.301918 3.719148
LeftLeg -6.524620 -0.000000 0.000000
LeftFoot -19.202374 28.187667 -12.398359
LeftToeBase 27.454716 -0.000000 -0.000000
RightUpLeg -0.923287 -8.253713 0.133317
RightLeg -2.671793 -0.000000 0.000000
RightFoot -20.081225 -21.814329 16.523818
RightToeBase 25.042891 -0.000000 -0.000000
1709
root 19.646459 35.504133 -20.459428 -173.063956 -0.103367 181.935826
Spine -17.802373 -0.339960 -0.491070
Head 8.517137 0.491036 4.390598
LeftShoulder -11.364608 -34.137709 20.142013
LeftArm -3.906185 -2.821262 -4.952252
LeftForeArm 9.961073 -0.000000 -3.393271
LeftHand -5.470166 0.000000 -3.531135
LeftHandThumb1 -26.253704 0.000000 33.147579
RightShoulder -10.360372 -0.002837 -7.697885
RightArm -0.352622 39.870362 9.835834
RightForeArm -35.272612 0.000000 8.824427
RightHand -1.623367 -0.000000 5.816905
RightHandThumb1 -24.326973 -0.000000 -32.862282
LeftUpLeg 0.407717 12.301534 3.722756
LeftLeg -6.508733 -0.000000 0.000000
LeftFoot -19.231956 28.187681 -12.384504
LeftToeBase 27.495668 -0.000000 -0.000000
RightUpLeg -0.903132 -8.243064 0.126842
RightLeg -2.663579 -0.000000 0.000000
RightFoot -20.095937 -21.828823 16.498758
RightToeBase 24.969753 -0.000000 -0.000000
1710
root 19.647365 35.502840 -20.460398 -173.080207 -0.106199 181.934732
Spine -17.762043 -0.287921 -0.492758
Head 8.474699 0.476278 4.428742
LeftShoulder -11.540266 -34.023403 20.171944
LeftArm -3.992780 -2.736544 -5.102695
LeftForeArm 9.807133 -0.000000 -3.370930
LeftHand -5.386394 0.000000 -3.446788
LeftHandThumb1 -26.253704 0.000000 33.147579
RightShoulder -10.381870 -0.162703 -7.720328
RightArm -0.893888 40.394435 9.904569
RightForeArm -35.167967 -0.000000 9.185783
RightHand -1.760981 0.000000 5.581465
RightHandThumb1 -24.326973 -0.000000 -32.862282
LeftUpLeg 0.420695 12.284628 3.726849
LeftLeg -6.497358 -0.000000 0.000000
LeftFoot -19.237344 28.210158 -12.361696
LeftToeBase 27.510001 -0.000000 -0.000000
RightUpLeg -0.888938 -8.181060 0.118714
RightLeg -2.650695 -0.000000 0.000000
RightFoot -20.124700 -21.876341 16.479004
RightToeBase 24.995778 -0.000000 -0.000000
1711
root 19.648749 35.500823 -20.462538 -173.107025 -0.122672 181.927141
Spine -17.705530 -0.218451 -0.523373
Head 8.417844 0.396763 4.480041
LeftShoulder -11.731722 -33.906571 20.228828
LeftArm -4.028594 -2.788679 -5.272212
LeftForeArm 9.773209 -0.000000 -3.338947
LeftHand -5.348048 -0.000000 -3.548688
LeftHandThumb1 -26.253704 0.000000 33.147579
RightShoulder -10.403258 -0.228425 -7.751235
RightArm -1.542654 40.845294 9.909535
RightForeArm -34.962989 -0.000000 9.532647
RightHand -1.606769 -0.000000 5.254219
RightHandThumb1 -24.326973 -0.000000 -32.862282
LeftUpLeg 0.438695 12.253842 3.731641
LeftLeg -6.475320 -0.000000 0.000000
LeftFoot -19.255790 28.214462 -12.339690
LeftToeBase 27.503831 -0.000000 -0.000000
RightUpLeg -0.850413 -8.173966 0.109294
RightLeg -2.661359 -0.000000 0.000000
RightFoot -20.129934 -21.891941 16.449252
RightToeBase 25.010663 -0.000000 -0.000000
1712
root 19.648770 35.499572 -20.464129 -173.118951 -0.138998 181.917363
Spine -17.678980 -0.106273 -0.547456
Head 8.397934 0.313406 4.472799
LeftShoulder -11.868940 -33.813160 20.240555
LeftArm -4.062133 -2.917587 -5.456518
LeftForeArm 9.663952 -0.000000 -3.284893
LeftHand -5.375297 -0.000000 -3.501184
LeftHandThumb1 -26.253704 0.000000 33.147579
RightShoulder -10.438929 -0.303047 -7.759442
RightArm -2.201008 41.285690 9.831418
RightForeArm -34.737419 -0.000000 9.830023
RightHand -1.924347 -0.000000 4.912601
RightHandThumb1 -24.326973 -0.000000 -32.862282
LeftUpLeg 0.437269 12.242402 3.726837
LeftLeg -6.449692 -0.000000 0.000000
LeftFoot -19.269139 28.204950 -12.327666
LeftToeBase 27.509991 -0.000000 -0.000000
RightUpLeg -0.832779 -8.167304 0.098092
RightLeg -2.660672 -0.000000 0.000000
RightFoot -20.150912 -21.925694 16.432707
RightToeBase 24.989271 -0.000000 -0.000000
1713
root 19.647862 35.498994 -20.464219 -173.116486 -0.145105 181.909173
Spine -17.676894 0.032771 -0.572964
Head 8.397866 0.185495 4.442771
LeftShoulder -11.964684 -33.800996 20.217468
LeftArm -4.091209 -3.050919 -5.571748
LeftForeArm 9.765852 -0.000000 -3.292301
LeftHand -5.339730 -0.000000 -3.655172
LeftHandThumb1 -26.253704 0.000000 33.147579
RightShoulder -10.459764 -0.284876 -7.780956
RightArm -2.941906 41.821734 9.666560
RightForeArm -34.639645 -0.000000 10.104565
RightHand -2.039671 -0.000000 4.585680
RightHandThumb1 -24.326973 -0.000000 -32.862282
LeftUpLeg 0.418899 12.227950 3.717129
LeftLeg -6.422876 -0.000000 0.000000
LeftFoot -19.289568 28.211879 -12.336693
LeftToeBase 27.523565 -0.000000 -0.000000
RightUpLeg -0.831827 -8.139693 0.087921
RightLeg -2.665906 -0.000000 0.000000
RightFoot -20.159209 -21.948794 16.407882
RightToeBase 25.111409 -0.000000 -0.000000
